<svg width="20" height="14" viewBox="0 0 20 14" fill="none" xmlns="http://www.w3.org/2000/svg" xmlns:xlink="http://www.w3.org/1999/xlink">
<path d="M19.373,8.454C20.176,7.696 20.212,6.43 19.454,5.627C18.696,4.824 17.43,4.788 16.627,5.546L19.373,8.454ZM12.706,12L11.341,13.462C12.112,14.182 13.311,14.179 14.079,13.454L12.706,12ZM3.365,0.538C2.558,-0.216 1.292,-0.172 0.538,0.635C-0.216,1.442 -0.172,2.708 0.635,3.462L3.365,0.538ZM16.627,5.546L11.333,10.546L14.079,13.454L19.373,8.454L16.627,5.546ZM14.071,10.538L3.365,0.538L0.635,3.462L11.341,13.462L14.071,10.538Z" transform="rotate(360 10 7)" fill="#1E0E62"/>
</svg>
